<svg id="Layer_1" data-name="Layer 1" xmlns="http://www.w3.org/2000/svg" viewBox="0 0 33.33 33.4"><defs><style>.cls-1{fill:#0085db;}.cls-2{fill:#5ac8fa;fill-rule:evenodd;}</style></defs><path class="cls-1" d="M18.54,30c-2.05,1.27-3.63.6-5-1.17a10.29,10.29,0,0,0-1.09-1.1c-1.82-1.83-1.87-2.11-.76-4.54,1.76-3.5,3.45-6.89,5.15-10.27A19.6,19.6,0,0,1,23.1,6.67a18,18,0,0,1,12.26-2,2,2,0,0,1,1.72,1.73c1.16,7.42-1.14,14-8.16,18.35-.8.46-1.47.91-2.18,1.26Q22.66,28.06,18.54,30ZM26.9,11.25a2.6,2.6,0,0,0,3.63,3.61,2.56,2.56,0,0,0,.55-3.68C30.06,9.88,28.37,9.85,26.9,11.25Z" transform="translate(-4.03 -4.4)"/><path class="cls-2" d="M11.71,23.14c1.76-3.42,3.45-6.81,5.05-10.2H15c-1,0-2.06,0-3.08,0a4.6,4.6,0,0,0-4.25,2.31C6.51,17,5.41,18.85,4.37,20.68c-.8,1.4-.14,2.49,1.46,2.5C7.77,23.2,9.71,23.19,11.71,23.14Zm13,3.89c-2.07,1-4.14,2-6.2,3.1v2.05c0,1.24,0,2.46,0,3.67,0,1.64,1.25,2.43,2.57,1.65,1.82-1.06,3.63-2.17,5.4-3.32a4.47,4.47,0,0,0,2.27-3.64c.06-1.91.09-3.81.07-5.7-.32.17-.62.35-.91.52a13.68,13.68,0,0,1-1.23.69Z" transform="translate(-4.03 -4.4)"/></svg>